<?xml version="1.0" standalone="no"?>
<!DOCTYPE svg PUBLIC "-//W3C//DTD SVG 20010904//EN"
 "http://www.w3.org/TR/2001/REC-SVG-20010904/DTD/svg10.dtd">
<svg version="1.0" xmlns="http://www.w3.org/2000/svg"
 width="204.000000pt" height="158.000000pt" viewBox="0 0 204.000000 158.000000"
 preserveAspectRatio="xMidYMid meet">

<g transform="translate(0.000000,158.000000) scale(0.100000,-0.100000)"
fill="#000000" stroke="none">
<path d="M900 1571 c0 -5 15 -12 34 -15 42 -8 217 -77 251 -100 13 -9 51 -56
84 -104 74 -109 130 -162 256 -245 106 -69 148 -108 160 -144 9 -32 -1 -29
-35 11 -17 19 -82 64 -145 102 -142 84 -232 166 -283 259 -38 69 -40 71 -138
122 -145 75 -291 103 -369 69 -29 -12 -28 -13 44 -19 239 -23 358 -79 446
-212 19 -28 53 -68 74 -88 22 -21 58 -63 80 -95 53 -78 73 -94 173 -141 64
-31 98 -54 132 -92 l46 -51 0 55 c0 31 -5 78 -11 105 -8 42 -17 54 -54 81 -24
17 -53 45 -65 61 -11 16 -53 49 -93 74 -62 39 -81 58 -122 121 -83 130 -156
182 -321 230 -88 26 -144 32 -144 16z"/>
<path d="M1307 1478 c22 -24 61 -75 86 -115 37 -57 61 -82 119 -121 40 -27 88
-69 107 -93 48 -59 50 -34 5 51 -35 67 -41 74 -105 105 -44 23 -79 49 -101 77
-44 57 -128 138 -141 138 -6 0 7 -19 30 -42z"/>
<path d="M611 1443 c-37 -3 -63 -11 -80 -26 l-26 -22 150 -2 c167 -1 272 -22
353 -69 65 -38 178 -145 249 -237 71 -90 105 -122 215 -196 43 -28 94 -66 115
-84 38 -34 82 -115 84 -157 1 -20 4 -18 14 15 26 78 21 98 -42 156 -35 31 -90
67 -138 89 -85 40 -133 83 -180 160 -15 25 -60 79 -99 120 -40 41 -82 91 -94
111 -56 92 -304 160 -521 142z"/>
<path d="M488 1342 c-26 -9 -49 -20 -53 -23 -3 -4 69 -5 162 -2 299 9 406 -38
553 -242 70 -97 105 -130 227 -213 150 -104 212 -186 213 -285 0 -102 -64
-172 -155 -171 -68 1 -181 57 -272 134 -90 76 -113 90 -150 90 -55 0 -234 -69
-323 -125 -103 -64 -152 -89 -208 -106 -38 -11 -41 -14 -28 -28 14 -13 28 -9
133 41 65 31 141 64 169 72 27 9 75 32 104 51 82 53 151 46 258 -25 33 -22 79
-47 103 -55 23 -9 57 -26 75 -40 32 -25 96 -44 147 -45 18 0 42 13 70 38 23
21 54 46 69 55 15 10 38 38 51 64 23 44 23 48 9 97 -21 71 -49 104 -165 192
-166 126 -193 151 -254 232 -32 42 -97 116 -145 164 -75 74 -96 89 -150 107
-130 43 -351 54 -440 23z"/>
<path d="M405 1280 c-10 -16 9 -18 155 -23 108 -3 158 -10 251 -34 187 -49
250 -92 306 -208 18 -38 33 -74 33 -80 0 -22 56 -63 141 -103 103 -49 178
-123 199 -195 11 -41 10 -50 -6 -84 -28 -55 -79 -72 -156 -49 -74 21 -161 88
-220 169 -27 35 -57 67 -67 70 -13 3 -42 -10 -83 -39 -85 -61 -146 -78 -216
-62 l-53 11 -72 -75 c-54 -57 -90 -83 -144 -110 -67 -32 -72 -36 -59 -53 13
-18 15 -18 59 -1 25 9 81 44 124 78 43 33 95 68 115 79 74 38 268 109 298 109
46 0 82 -23 178 -112 98 -91 165 -128 232 -128 56 0 86 20 111 74 48 106 -4
200 -178 317 -105 71 -163 127 -244 235 -111 148 -206 198 -396 208 -54 3
-144 8 -200 11 -66 4 -104 2 -108 -5z"/>
<path d="M370 1230 c-12 -23 -6 -24 182 -40 146 -12 217 -29 308 -71 122 -57
170 -114 170 -203 0 -37 -6 -52 -32 -82 -43 -49 -77 -62 -210 -79 -137 -18
-178 -40 -241 -127 -51 -72 -129 -148 -152 -148 -8 0 -15 -4 -15 -10 0 -16 17
-12 71 16 48 24 108 79 190 173 l37 42 74 -7 c85 -7 128 7 206 71 72 58 90 52
202 -65 70 -74 109 -106 150 -125 89 -40 130 -31 130 31 0 54 -64 114 -191
179 -121 62 -134 76 -170 182 -15 45 -32 72 -63 101 -55 51 -86 67 -178 91
-72 20 -421 91 -445 91 -7 0 -17 -9 -23 -20z m879 -491 c83 -42 121 -77 121
-110 0 -28 -18 -32 -50 -12 -128 80 -170 114 -170 138 0 14 4 25 9 25 5 0 45
-19 90 -41z"/>
<path d="M336 1171 c-3 -4 -10 -20 -15 -34 -10 -26 -9 -27 69 -51 61 -20 108
-27 204 -30 139 -5 187 -15 237 -49 76 -51 75 -112 -4 -147 -34 -16 -65 -20
-163 -20 -81 0 -126 -4 -138 -13 -9 -7 -36 -48 -60 -92 -39 -73 -94 -133 -138
-147 -10 -4 -9 -13 4 -41 20 -43 23 -43 64 -18 32 20 61 52 141 161 69 93 125
120 247 120 75 0 100 4 136 23 85 42 90 101 16 172 -52 50 -126 79 -270 106
-61 11 -156 32 -211 45 -114 27 -112 27 -119 15z"/>
<path d="M291 1051 c-15 -51 -16 -48 24 -61 45 -15 75 -54 75 -97 0 -41 -53
-151 -86 -179 -24 -20 -25 -23 -12 -54 l13 -33 34 29 c19 16 47 57 65 99 53
114 105 145 247 145 76 0 179 23 179 40 0 5 -11 17 -25 26 -20 13 -55 17 -172
18 -161 2 -193 10 -286 75 l-44 30 -12 -38z"/>
<path d="M270 957 c0 -7 9 -22 20 -32 26 -23 25 -46 -1 -79 -13 -17 -19 -37
-17 -58 3 -30 4 -29 36 35 19 36 32 76 30 89 -4 26 -68 69 -68 45z"/>
<path d="M876 494 c-21 -15 -89 -46 -150 -69 -61 -23 -137 -55 -169 -71 -56
-29 -57 -31 -39 -47 17 -16 22 -15 91 18 39 19 107 47 149 62 42 14 97 40 121
57 32 23 53 31 85 30 43 -1 175 -54 327 -129 118 -60 147 -64 181 -28 l28 29
-34 -4 c-42 -5 -150 22 -185 47 -14 10 -44 24 -66 31 -22 6 -65 27 -95 45
-102 61 -182 71 -244 29z"/>
<path d="M930 405 c-57 -33 -109 -55 -188 -75 -45 -11 -103 -30 -128 -42 l-45
-22 23 -18 c13 -10 29 -18 37 -18 8 0 73 27 145 59 226 101 255 103 389 32 89
-48 203 -89 214 -77 3 3 -3 8 -13 12 -10 4 -93 40 -184 80 -186 83 -214 91
-250 69z"/>
<path d="M985 313 c-11 -3 -80 -30 -153 -61 -89 -37 -129 -59 -122 -66 12 -12
48 0 181 60 53 24 107 44 120 44 14 0 49 -15 78 -34 29 -19 66 -40 82 -47 19
-7 26 -15 19 -19 -15 -9 -82 5 -121 25 -39 21 -55 19 -157 -15 -50 -16 -98
-30 -108 -30 -12 0 -15 -3 -8 -10 16 -16 84 -14 144 3 69 21 117 21 174 2 42
-15 49 -14 108 6 34 11 74 27 87 34 24 12 23 13 -33 25 -33 7 -92 30 -133 51
-70 37 -106 44 -158 32z"/>
</g>
</svg>
