<?xml version="1.0" encoding="utf-8"?>
<!-- Generator: Adobe Illustrator 16.0.0, SVG Export Plug-In . SVG Version: 6.00 Build 0)  -->
<!DOCTYPE svg PUBLIC "-//W3C//DTD SVG 1.1//EN" "http://www.w3.org/Graphics/SVG/1.1/DTD/svg11.dtd">
<svg version="1.1" id="Layer_1" xmlns="http://www.w3.org/2000/svg" xmlns:xlink="http://www.w3.org/1999/xlink" x="0px" y="0px"
	 width="612px" height="113px" viewBox="0 0 612 113" enable-background="new 0 0 612 113" xml:space="preserve">
<g>
	<path fill="#FFFFFF" d="M10.175,33.024c0,0,5.043,2.395,17.585,4.389c0.051,0.008,0.103,0.017,0.148,0.023
		c12.649,2.003,27.882,4.837,28.46,14.434c0,0,0.036,6.454-8.652,8.16c0,0-3.407,0.483-7.861,0.185
		c-4.451-0.296-6.98,0.371-11.796,3.824c0,0-2.784,2.411-5.45,6.454c-2.674,4.041-5.237,8.864-11.877,11.499
		c0,0-2.52-4.71-2.82-6.009c0,0,4.938-1.039,8.493-6.309c3.564-5.267,4.531-10.831,7.826-11.462c0,0,1.342-0.631,5.645-0.26
		c4.3,0.373,12.872,0.301,16.101-1.817c3.228-2.116,4.158-5.305,1.706-8.2c-2.451-2.893-8.346-5.305-15.542-5.376
		c-7.199-0.078-7.683,0.63-14.211-0.742c0,0-7.126-1.56-10.314-3.346C7.615,38.471,9.541,33.765,10.175,33.024z"/>
	<path fill="#FFFFFF" d="M15.037,25.27c0,0,3.742,0.77,12.796,1.034c0.054,0.004,0.104,0.004,0.151,0.004
		c9.166,0.258,12.023,0.148,17.14,1.298c0,0,6.752,1.482,10.98,4.636c4.23,3.153,5.974,5.493,7.308,7.162
		c1.341,1.669,5.644,8.646,10.091,12.28c0,0,4.309,3.636,6.272,5.045c0,0,10.423,6.087,13.542,11.02
		c3.115,4.933,4.152,7.271,2.483,12.761c-1.668,5.491-6.936,7.42-11.537,5.899c-4.601-1.525-6.23-2-11.242-6.496
		c0,0-6.605-6.635-7.644-7.269c-1.04-0.633-5.083-5.528-12.912-1.969c-7.826,3.562-14.466,5.457-17.288,7.35
		c-2.815,1.888-5.045,3.079-10.501,7.863c0,0-3.186,2.967-8.568,3.746c0,0-2.109-2.559-2.186-2.816c0,0,4.601-1.148,9.72-4.602
		c5.12-3.45,6.938-6.567,7.677-7.605c0,0,2.376-3.936,5.379-3.118c0,0,4.785,2.153,9.541,0.374c4.744-1.78,6.895-3.417,9.455-5.492
		c2.563-2.077,3.821-2.896,6.608,0c2.777,2.895,3.113,4.819,7.606,9.274c0,0,9.899,9.016,18.363,6.344c0,0,4.896-1.633,4.231-7.9
		c-0.667-6.271-6.792-11.277-11.615-14.097c-4.825-2.821-11.539-4.046-13.062-8.685c-1.52-4.636-1.893-6.491-5.523-11.24
		c0,0-3.639-4.825-10.244-7.046c-6.598-2.226-15.394-4.266-19.546-4.716c-4.157-0.44-7.237-0.629-10.611-0.518
		c-3.377,0.111-8.458-0.334-8.458-0.334S14.628,25.753,15.037,25.27z"/>
	<path fill="#FFFFFF" d="M7.21,39.925c0,0,7.157,6.341,14.282,7.415c7.124,1.078,11.761,0.188,11.761,0.188s6.007-0.965,9.275,0.741
		c3.268,1.707,2.376,3.3-0.299,4.193c-2.671,0.888-7.496,1.519-12.506,1.298c-5.004-0.223-9.381,1.151-11.679,4.008
		c-2.299,2.856-3.862,7.268-4.6,8.978c-0.748,1.703-2.159,4.712-6.5,6.194c0,0-0.698-2.039-1.402-4.97c0,0,2.592-0.854,3.744-3.34
		c1.15-2.486,2.892-6.343,3.523-7.417c0.636-1.078,1.969-4.046-0.819-7.496c-2.776-3.451-6.67-3.153-6.67-3.153
		S6.501,41.553,7.21,39.925z"/>
	<path fill="#FFFFFF" d="M4.982,48.642c0,0,4.414,1.113,5.193,4.082c0,0,0.628,1.483-1.261,4.005c0,0-1.078,1.67-1.518,2.822
		c-0.452,1.149-1.376,3.784-2.414,4.302c0,0-0.593-2.524-0.48-4.678c0,0,3.411-1.665,3.113-5.413c0,0-0.11-1.966-2.966-2.857
		L4.982,48.642z"/>
	<path fill="#FFFFFF" d="M16.856,90.45l1.965,2.267c0,0,7.126-3.343,9.239-4.38c0,0,7.488-3.377,8.831-3.822
		c1.333-0.448,6.379-2.038,8.68-3.485c0,0,5.452-4.267,8.675-3.708c3.232,0.553,6.382,1.367,8.019,2.073
		c1.626,0.705,4.486,3.338,5.338,3.857c0.854,0.521,1.635,1.039,5.158,2.228c3.524,1.187,4.564,2.335,5.94,3.188
		c1.37,0.856,3.04,2.599,10.016,2.971c0,0,3.372,0.484,5.749-3.155c0,0,2.746-3.003,5.789-3.707c0,0,3.635-6.161,4.004-7.904
		c0,0-1.073-2.559-1.225-3.673c-0.149-1.111-0.409-4.451-5.417-8.792c0,0-8.082-6.493-9.79-7.679c0,0-10.91-7.867-13.434-11.946
		c0,0-4.86-7.53-7.267-9.236c-2.416-1.707-5.604-5.493-5.604-5.493s-1.637-3.229-6.934-5.598c0,0-3.678-1.562-7.348-2.229
		c0,0-4.639-1.113-9.131-1.296c-4.485-0.188-11.943-0.524-15.617,0.443c-3.671,0.966-3.639,1.335-5.417,1.446l-1.148,1.333
		c0,0,7.162-0.221,14.394-0.482c0,0,10.801-1.073,20.589,2.525c0,0,4.522,1.561,10.357,6.829c0,0,3.744,3.891,5.745,6.901
		c0,0,5.34,8.79,9.942,11.46c0,0,5.735,3.563,12.073,8.458c0,0,9.783,7.235,10.261,14.322c0,0,1.168,6.785-3.488,11.946
		c0,0-3.486,4.008-10.054,2.707c0,0-4.451-0.963-12.687-6.044c0,0-3.668-2.374-4.859-3.784c0,0-4.825-6.083-9.754-6.272
		c0,0-2.676,0.039-5.568,1.226c0,0-7.226,2.596-8.247,2.931c-1.031,0.334-5.851,2.339-10.489,5.49c0,0-6.639,4.899-14.138,7.271
		L16.856,90.45z"/>
	<path fill="#FFFFFF" d="M20.938,94.904c0,0,7.123-3.601,9.12-4.417c2.006-0.813,9.092-3.708,12.02-4.563
		c2.934-0.85,4.455-1.89,6.866-3.708c2.409-1.816,3.269-2.521,8.98-0.965c5.713,1.559,6.194,2.559,7.455,3.19
		c1.261,0.634,0.78,1.783,7.571,3.635c0,0,2.374,0.487,4.454,2.228c2.073,1.743,8.27,3.299,12.497,3.114
		c0,0,3.006-0.108,3.453-0.369c0,0-3.115,3.599-4.562,4.188c0,0-2.561,0.634-8.5-2.595c-5.932-3.224-10.2-5.083-13.503-6.344
		c-3.297-1.258-8.864-5.046-14.095-4.231c0,0-2.227,0.407-4.491,2.492c-2.257,2.078-5.6,2.965-8.087,3.856
		c0,0-3.146,0.889-8.116,3.081c0,0-3.344,1.446-4.535,2.225c-1.188,0.779-3.819,1.407-3.819,1.407L20.938,94.904z"/>
	<path fill="#FFFFFF" d="M25.794,98.874c0,0,3.042-1.04,6.052-2.374c3.005-1.338,3.814-1.415,7.304-2.191
		c3.485-0.774,7.31-1.781,9.794-3.264c2.488-1.486,3.831-3.413,7.425-2.708c3.595,0.707,8.675,3.49,9.458,3.71
		c0.777,0.225,9.456,4.364,11.647,5.242c2.189,0.882,4.933,2.548,7.75,2.774l-1.478,0.963c0,0-4.23-0.558-10.654-3.524
		c-6.416-2.97-7.006-3.933-7.934-4.416c-0.931-0.485-2.933-1.964-8.019-1.522c0,0-3.152,0.297-10.458,3.41
		c0,0-13.656,6.351-16.289,6.98L25.794,98.874z"/>
	<path fill="#FFFFFF" d="M34.922,104.181c0,0,6.715-2.603,9.458-4.047c2.749-1.444,10.127-4.49,13.951-4.861
		c0,0,3.972-0.816,5.896,0.78c1.931,1.597,7.57,4.635,12.057,5.415c4.493,0.786,4.972,0.741,4.972,0.741s-5.934,3.861-13.395,5.16
		c0,0-3.744-2.301-8.68-1.967c-4.937,0.335-8.309,1.265-11.351,2.709c0,0-5.083-0.815-7.09-1.78c0,0,12.036-2.634,14.275-4.193
		c0,0,3.055-1.742,5.611-0.184c0,0,6.831,3.412,10.39,2.557c0,0,1.268-0.146,0.113-0.665c0,0-4.564-1.151-8.46-4.64
		c0,0-2.298-2.152-5.897-1.592c-3.603,0.557-5.9,2.259-7.265,2.782c0,0-3.344,1.889-7.651,3.377l-4.009,1.628L34.922,104.181z"/>
	<path fill="#FFFFFF" d="M88.156,72.123c-2.557-5.522-10.122-8.754-11.643-9.795c0,0-10.171-3.3-11.839-8.567
		c0,0-1.037-1.966-1.557-4.266c-0.523-2.299-1.665-5.492-4.71-8.31c0,0-4.043-4.155-13.396-6.493c0,0-9.535-2.229-15.36-3.188
		c0,0-16.248-3.118-16.506-3.525l-2.227,3.525c0,0,3.449,0.776,13.688,1.295c0,0,9.905,0.483,16.993,3.044
		c0,0,17.141,4.338,17.701,15.245c0,0,0.996,5.458-4.383,9.463c0,0-2.668,2.449-10.756,3.154c-8.09,0.703-11.059,1.743-13.317,2.927
		c-2.264,1.189-5.311,5.235-7.499,8.24c-2.189,3.003-5.119,7.754-11.238,9.385l0.811,1.224c0,0,4.825-0.816,10.798-5.785
		c0,0,2.265-1.598,4.602-4.676c1.014-1.336,3.68-5.676,5.083-6.346c1.399-0.66,2.258-1.075,6.01-0.035
		c3.75,1.035,8.201,0.52,11.982-2.898c3.785-3.414,6.865-6.524,11.243-3.82c0,0,1.816,0.744,5.899,6.346
		c4.078,5.598,12.612,11.91,18.253,10.276C86.789,78.543,90.718,77.652,88.156,72.123z M83.669,73.607c0,0-0.111,1.707-2.597,0.967
		c-2.481-0.745-5.087-3.672-5.087-3.672s-1.104-1.099-3.927-2.465c-2.82-1.358-4.828-3.51-4.339-5.664c0,0,0.221-0.367,0.556-0.592
		c0,0,0.927-0.483,3.114,1.224c2.19,1.705,4.118,2.114,4.118,2.114s2.226,0.67,2.782,1.411c0.557,0.745,1.781,1.301,1.781,1.301
		S84.002,70.233,83.669,73.607z"/>
	<path fill="#FFFFFF" d="M21.01,18.887c0,0,3.337-3.192,4.523-3.635c1.189-0.443,10.686-0.742,11.803-0.892
		c1.111-0.149,11.499,0.297,19.585,3.938c8.09,3.629,8.613,3.855,10.726,8.158c2.113,4.303,7.082,7.567,7.305,7.788
		c0.222,0.228,3.51,3.208,5.044,6.31c2.562,5.156,6.379,8.533,8.387,9.792c2,1.26,8.975,3.414,13.279,7.163
		c4.303,3.745,6.086,6.789,6.086,6.789s-0.763,5.295-2.603,10.089c0,0-0.036-6.307-3.15-10.646c-3.115-4.34-9.718-8.46-9.718-8.46
		s-9.129-6.045-11.206-8.309c-2.08-2.266-4.082-4.452-6.645-7.976c-2.555-3.524-3.852-5.082-5.853-6.715
		c-2.007-1.632-4.974-4.524-5.794-5.414c-0.813-0.895-4.547-3.563-7.763-4.901c-3.213-1.334-5.409-2.333-15.829-3.522
		c0,0-5.715-0.559-9.464-0.449C25.981,18.108,22.901,18.258,21.01,18.887z"/>
	<path fill="#FFFFFF" d="M43.452,10.616c13.658,1.67,17.92,4.857,17.92,4.857c7.013,3.491,9.945,9.352,9.945,9.352
		c1.929,3.522,5.269,6.379,5.269,6.379c2.932,2.337,4.377,4.524,4.377,4.524c2.299,4.416,6.453,8.633,6.453,8.633
		c2.565,2.18,11.098,5.691,11.098,5.691c3.891,1.817,9.754,9.457,9.754,9.457c0.853-6.695-1.444-14.874-1.444-14.874
		c-0.189-0.71-1.86-1.968-1.86-1.968c-2.447-1.558-6.377-5.785-7.229-6.644c-0.855-0.852-2.561-2.78-7.198-5.119
		c-4.64-2.338-5.79-5.822-7.608-8.343c-1.82-2.525-3.971-7.606-11.24-11.573c-7.277-3.975-16.882-5.976-16.882-5.976
		c-4.009-0.227-7.452,0.668-7.452,0.668s6.01,0.704,9.015,2.092c3.013,1.389,5.526,2.321,5.526,2.321
		c2.779,0.741,7.86,3.375,7.86,3.375c1.967,0.781,5.197,5.716,5.197,5.716c0.963,1.745,3.413,4.854,3.673,5.563
		c0.261,0.703,4.006,4.776,4.006,4.776c3.08,3.921,10.349,8.21,10.349,8.21c1.635,0.627,8.498,5.781,8.498,5.781
		c3.151,2.567,5.232,4.978,4.896,6.868c-0.336,1.894-0.783,0.189-0.783,0.189c-1.185-3.526-7.121-6.348-8.195-7.057
		c-1.078-0.696-8.084-4.558-13.354-8.603c-5.137-3.943-8.57-6.935-11.057-12.725c-1.772-4.122-3.896-6.231-6.678-7.011
		c-2.782-0.781-7.716-3.782-7.716-3.782C49.128,6.42,38.78,8.017,38.78,8.017c-1.562,0.227-5.307,2.044-5.307,2.044
		s-0.183,0.098,0.196,0.083c0.387-0.01,5.77-0.107,9.033,0.384L43.452,10.616z"/>
	<path fill="#FFFFFF" d="M73.619,7.871c0,0,4.375,1.375,8.415,7.565c4.043,6.196,4.899,8.87,8.502,11.464
		c3.597,2.598,6.228,3.118,10.092,7.682c3.854,4.564,4.784,4.897,4.784,4.897s-5.346-13.616-13.472-20.483
		C91.94,18.996,81.371,10.061,73.619,7.871z"/>
</g>
<g>
	<polygon fill="#FFFFFF" points="324.896,92.719 339.354,92.719 309.64,52.702 337.643,20.381 323.756,20.381 290.847,57.502 
		290.847,20.381 278.484,20.381 278.484,92.719 290.847,92.719 290.847,74.19 301.452,62.398 	"/>
	<path fill="#FFFFFF" d="M196.818,51.915v35.588c-4.45,2.308-8.621,3.98-12.505,5.021c-3.888,1.04-8.128,1.563-12.719,1.563
		c-7.703,0-13.991-1.599-18.866-4.799c-4.873-3.197-8.443-7.568-10.704-13.108c-2.262-5.539-3.393-12.03-3.393-19.469
		c0-8.7,1.501-15.878,4.506-21.531c3.001-5.649,7.012-9.78,12.031-12.384c5.014-2.6,10.632-3.906,16.848-3.906
		c8.694,0,16.392,2.231,23.105,6.695l-5.099,9.373c-5.311-3.572-11.048-5.355-17.211-5.355c-7.437,0-12.909,2.341-16.415,7.028
		c-3.505,4.686-5.256,11.193-5.256,19.522c0,8.853,1.647,15.562,4.942,20.136c3.294,4.577,8.628,6.863,16.002,6.863
		c4.326,0,8.542-0.781,12.654-2.345V62.401h-16.323l1.375-10.487H196.818z"/>
	<path fill="#FFFFFF" d="M265.385,91.853v0.784h-13.669l-18.547-27.334h-8.267v27.334H212.82V20.342h22.68
		c5.649,0,10.402,0.933,14.255,2.792c3.85,1.856,6.745,4.424,8.689,7.698c1.944,3.272,2.916,7.066,2.916,11.377
		c0,5.131-1.323,9.614-3.974,13.444c-2.651,3.83-6.52,6.526-11.608,8.088L265.385,91.853z M224.902,55.262h9.115
		c4.804,0,8.48-1.062,11.021-3.182c2.544-2.119,3.817-5.262,3.817-9.424c0-3.868-1.151-6.807-3.445-8.817
		c-2.297-2.005-5.637-3.008-10.014-3.008h-10.494V55.262z"/>
</g>
<g>
	<g>
		<path fill="#FFFFFF" d="M390.813,93.252h-4.094V68.424c0-1.962,0.114-4.363,0.344-7.201h-0.099
			c-0.393,1.668-0.744,2.864-1.053,3.586l-12.017,28.442h-2.009l-11.991-28.236c-0.343-0.825-0.694-2.091-1.055-3.793h-0.097
			c0.131,1.48,0.195,3.896,0.195,7.252v24.777h-3.972V56.241h5.443l10.789,25.81c0.833,1.98,1.372,3.458,1.618,4.439h0.146
			c0.703-2.03,1.267-3.544,1.691-4.542l11.011-25.707h5.146V93.252z"/>
		<path fill="#FFFFFF" d="M419.297,81.096h-17.729c0.067,2.943,0.817,5.214,2.257,6.814c1.438,1.601,3.416,2.401,5.935,2.401
			c2.826,0,5.425-0.98,7.796-2.944v3.976c-2.206,1.687-5.123,2.53-8.755,2.53c-3.546,0-6.332-1.199-8.359-3.601
			c-2.026-2.399-3.039-5.777-3.039-10.13c0-4.113,1.104-7.463,3.321-10.053c2.214-2.591,4.966-3.885,8.251-3.885
			s5.827,1.119,7.625,3.355c1.797,2.238,2.697,5.343,2.697,9.318V81.096z M415.178,77.509c-0.016-2.443-0.575-4.345-1.681-5.703
			c-1.103-1.36-2.635-2.041-4.597-2.041c-1.896,0-3.505,0.715-4.829,2.143c-1.325,1.429-2.143,3.296-2.454,5.601H415.178z"/>
		<path fill="#FFFFFF" d="M446.406,93.252h-4.021v-4.49h-0.097c-1.864,3.407-4.742,5.111-8.631,5.111
			c-3.154,0-5.677-1.185-7.565-3.55c-1.888-2.365-2.832-5.588-2.832-9.665c0-4.371,1.047-7.873,3.139-10.506
			c2.093-2.632,4.879-3.949,8.361-3.949c3.448,0,5.958,1.429,7.528,4.285h0.097V54.124h4.021V93.252z M442.385,81.303v-3.897
			c0-2.133-0.67-3.94-2.011-5.42c-1.339-1.48-3.04-2.22-5.099-2.22c-2.454,0-4.383,0.948-5.787,2.839
			c-1.407,1.893-2.109,4.51-2.109,7.848c0,3.044,0.674,5.449,2.022,7.212c1.349,1.764,3.158,2.646,5.431,2.646
			c2.24,0,4.059-0.853,5.457-2.555C441.687,86.052,442.385,83.9,442.385,81.303z"/>
		<path fill="#FFFFFF" d="M456.205,60.113c-0.72,0-1.332-0.258-1.84-0.775c-0.505-0.516-0.759-1.17-0.759-1.961
			c0-0.792,0.254-1.449,0.759-1.975c0.508-0.524,1.12-0.787,1.84-0.787c0.735,0,1.361,0.263,1.877,0.787
			c0.515,0.526,0.771,1.183,0.771,1.975c0,0.757-0.256,1.402-0.771,1.935C457.566,59.846,456.94,60.113,456.205,60.113z
			 M458.168,93.252h-4.023V66.824h4.023V93.252z"/>
		<path fill="#FFFFFF" d="M483.021,92.04c-1.931,1.222-4.219,1.833-6.868,1.833c-3.579,0-6.468-1.226-8.667-3.679
			c-2.198-2.451-3.298-5.628-3.298-9.536c0-4.354,1.186-7.852,3.558-10.492c2.369-2.642,5.531-3.962,9.486-3.962
			c2.208,0,4.152,0.43,5.838,1.291v4.336c-1.864-1.377-3.859-2.066-5.984-2.066c-2.564,0-4.67,0.969-6.313,2.904
			c-1.645,1.936-2.466,4.479-2.466,7.627c0,3.097,0.772,5.542,2.316,7.33c1.546,1.79,3.617,2.685,6.216,2.685
			c2.192,0,4.251-0.766,6.182-2.298V92.04z"/>
		<path fill="#FFFFFF" d="M506.672,93.252h-4.021v-4.129h-0.099c-1.749,3.167-4.323,4.75-7.724,4.75
			c-2.502,0-4.458-0.697-5.873-2.091c-1.413-1.393-2.12-3.244-2.12-5.55c0-4.938,2.762-7.809,8.287-8.62l7.528-1.11
			c0-4.49-1.727-6.737-5.173-6.737c-3.025,0-5.755,1.084-8.19,3.253v-4.336c2.468-1.653,5.312-2.478,8.532-2.478
			c5.9,0,8.852,3.287,8.852,9.861V93.252z M502.651,79.883l-6.057,0.877c-1.864,0.275-3.269,0.762-4.217,1.458
			c-0.948,0.696-1.424,1.931-1.424,3.704c0,1.291,0.438,2.343,1.313,3.161c0.874,0.817,2.039,1.227,3.495,1.227
			c1.992,0,3.639-0.735,4.939-2.207c1.298-1.47,1.95-3.333,1.95-5.588V79.883z"/>
		<path fill="#FFFFFF" d="M517.867,93.252h-4.021V54.124h4.021V93.252z"/>
		<path fill="#FFFFFF" d="M557.743,93.252H539.5V56.241h4.118v33.09h14.125V93.252z"/>
		<path fill="#FFFFFF" d="M580.167,93.252h-4.02v-4.129h-0.099c-1.749,3.167-4.324,4.75-7.724,4.75c-2.5,0-4.459-0.697-5.872-2.091
			c-1.415-1.393-2.121-3.244-2.121-5.55c0-4.938,2.762-7.809,8.287-8.62l7.528-1.11c0-4.49-1.726-6.737-5.173-6.737
			c-3.025,0-5.756,1.084-8.191,3.253v-4.336c2.468-1.653,5.313-2.478,8.533-2.478c5.901,0,8.851,3.287,8.851,9.861V93.252z
			 M576.147,79.883l-6.057,0.877c-1.862,0.275-3.27,0.762-4.218,1.458c-0.947,0.696-1.423,1.931-1.423,3.704
			c0,1.291,0.438,2.343,1.313,3.161c0.876,0.817,2.039,1.227,3.494,1.227c1.995,0,3.642-0.735,4.94-2.207
			c1.3-1.47,1.95-3.333,1.95-5.588V79.883z"/>
		<path fill="#FFFFFF" d="M591.462,89.434h-0.097v3.818h-4.022V54.124h4.022v17.345h0.097c1.979-3.51,4.871-5.265,8.68-5.265
			c3.221,0,5.742,1.184,7.564,3.549c1.823,2.367,2.735,5.537,2.735,9.511c0,4.424-1.022,7.963-3.065,10.619
			c-2.043,2.662-4.839,3.99-8.386,3.99C595.671,93.873,593.162,92.393,591.462,89.434z M591.365,78.773v3.691
			c0,2.185,0.674,4.04,2.022,5.562c1.349,1.523,3.06,2.285,5.136,2.285c2.436,0,4.346-0.98,5.727-2.944
			c1.381-1.96,2.071-4.688,2.071-8.181c0-2.942-0.646-5.247-1.937-6.916c-1.293-1.669-3.042-2.505-5.248-2.505
			c-2.337,0-4.217,0.857-5.64,2.568C592.075,74.045,591.365,76.193,591.365,78.773z"/>
	</g>
</g>
</svg>
