<?xml version="1.0" standalone="no"?>
<!DOCTYPE svg PUBLIC "-//W3C//DTD SVG 20010904//EN"
 "http://www.w3.org/TR/2001/REC-SVG-20010904/DTD/svg10.dtd">
<svg version="1.0" xmlns="http://www.w3.org/2000/svg"
 width="518.000000pt" height="79.000000pt" viewBox="0 0 518.000000 79.000000"
 preserveAspectRatio="xMidYMid meet">

<g transform="translate(0.000000,79.000000) scale(0.100000,-0.100000)"
fill="#000000" stroke="none">
<path d="M139 620 c-118 -62 -169 -201 -119 -318 24 -56 83 -116 136 -138 52
-22 142 -18 194 9 l45 22 0 95 0 95 -74 0 c-51 0 -76 -4 -78 -12 -4 -10 12
-13 56 -13 l61 0 0 -70 c0 -79 -12 -94 -85 -105 -101 -16 -212 61 -234 163
-21 100 29 199 124 243 55 26 112 24 171 -6 33 -17 52 -21 59 -14 12 12 -12
33 -62 55 -47 20 -150 17 -194 -6z"/>
<path d="M538 634 c-5 -4 -8 -110 -8 -234 0 -178 3 -230 13 -239 23 -18 27 -2
27 96 l0 93 55 0 56 0 47 -76 c26 -42 57 -88 69 -103 18 -22 22 -24 28 -9 4
10 -13 46 -49 101 l-55 86 34 20 c64 38 90 143 48 199 -41 55 -68 67 -166 70
-51 2 -95 0 -99 -4z m218 -68 c25 -25 34 -43 34 -67 0 -79 -54 -119 -157 -119
l-63 0 0 110 0 110 76 0 c73 0 77 -1 110 -34z"/>
<path d="M950 631 c-3 -147 1 -464 5 -471 16 -25 25 8 25 89 0 85 1 88 33 119
l33 32 93 -125 c84 -112 112 -138 111 -102 0 7 -41 66 -90 132 l-89 120 90 90
c77 79 108 125 81 125 -4 0 -61 -54 -127 -120 -66 -66 -123 -120 -127 -120 -4
0 -9 53 -10 117 -2 82 -7 118 -15 121 -7 2 -13 -1 -13 -7z"/>
<path d="M3707 633 c-4 -3 -7 -100 -7 -215 l0 -210 30 -29 c19 -20 38 -29 52
-27 31 4 29 31 -2 38 -44 10 -50 39 -50 253 0 180 -4 210 -23 190z"/>
<path d="M4200 595 c0 -22 4 -26 23 -23 14 2 22 10 22 23 0 13 -8 21 -22 23
-19 3 -23 -1 -23 -23z"/>
<path d="M3937 594 c-4 -4 -7 -31 -7 -61 0 -52 0 -53 -30 -53 -20 0 -30 -5
-30 -15 0 -10 10 -15 30 -15 l30 0 0 -95 c0 -107 14 -154 54 -180 36 -24 89
-25 94 -2 3 13 -3 17 -28 17 -20 0 -40 9 -55 25 -23 22 -25 31 -25 129 l0 105
45 3 c58 4 59 22 1 26 l-45 3 -3 56 c-3 52 -14 73 -31 57z"/>
<path d="M1677 486 c-50 -18 -67 -34 -88 -81 -69 -150 68 -302 216 -240 32 13
54 39 43 50 -2 3 -22 -4 -43 -15 -46 -24 -74 -25 -119 -6 -92 38 -112 175 -35
240 43 36 115 36 157 1 17 -14 35 -25 41 -25 17 0 13 25 -6 42 -46 39 -112 53
-166 34z"/>
<path d="M2087 486 c-105 -38 -146 -147 -94 -246 55 -104 204 -121 280 -31
113 135 -22 336 -186 277z m130 -46 c98 -59 77 -214 -34 -251 -140 -46 -239
138 -129 239 30 27 43 32 83 32 30 0 60 -7 80 -20z"/>
<path d="M2528 477 c-46 -23 -48 -23 -48 -5 0 13 -6 18 -17 16 -16 -3 -18 -19
-18 -168 0 -140 2 -165 15 -165 12 0 16 22 20 120 3 66 10 127 15 136 36 57
143 66 193 15 26 -25 27 -33 32 -149 7 -160 24 -161 28 -2 3 134 -9 170 -67
199 -55 29 -102 30 -153 3z"/>
<path d="M2963 489 c-37 -11 -73 -52 -73 -85 0 -41 39 -72 120 -93 97 -26 120
-54 81 -102 -27 -33 -116 -34 -161 0 -24 17 -35 20 -43 11 -18 -18 34 -57 87
-65 88 -14 166 28 166 88 -1 55 -31 79 -122 98 -84 18 -111 50 -77 93 17 21
29 26 67 26 31 0 55 -7 72 -20 45 -35 69 -19 31 19 -18 18 -82 42 -106 40 -5
0 -24 -5 -42 -10z"/>
<path d="M4515 493 c-11 -3 -32 -14 -47 -24 -33 -24 -38 -24 -38 1 0 11 -7 20
-15 20 -13 0 -15 -23 -13 -165 3 -193 20 -225 28 -53 3 63 11 123 18 135 39
69 176 69 214 0 7 -12 15 -74 18 -137 7 -149 24 -147 28 2 3 127 -11 168 -64
200 -32 19 -98 30 -129 21z"/>
<path d="M4947 485 c-141 -50 -156 -250 -23 -314 72 -35 164 -20 201 33 14 20
15 19 15 -12 0 -41 -22 -84 -56 -111 -47 -37 -154 -24 -193 23 -17 20 -31 21
-31 2 0 -22 56 -64 101 -76 80 -22 158 14 197 90 18 37 22 60 22 140 -1 137
-30 195 -117 226 -48 17 -68 17 -116 -1z m154 -64 c36 -35 39 -43 39 -92 0
-97 -66 -159 -153 -145 -83 14 -123 68 -115 158 5 44 11 57 42 85 32 29 42 33
92 33 52 0 59 -3 95 -39z"/>
<path d="M3253 474 c-3 -8 -4 -61 -1 -118 5 -122 24 -162 87 -191 50 -22 121
-16 162 14 28 21 29 21 29 2 0 -26 15 -34 29 -17 8 9 11 63 9 167 -3 137 -5
154 -20 157 -16 3 -18 -8 -18 -116 0 -105 -2 -122 -21 -145 -22 -29 -88 -51
-122 -42 -83 23 -97 51 -97 195 0 92 -2 110 -15 110 -9 0 -18 -7 -22 -16z"/>
<path d="M4212 325 c2 -102 7 -165 13 -165 6 0 11 63 13 165 2 143 0 165 -13
165 -13 0 -15 -22 -13 -165z"/>
</g>
</svg>
